<svg class="rich-terminal" viewBox="0 0 994 635.5999999999999" xmlns="http://www.w3.org/2000/svg">
    <!-- Generated with Rich https://www.textualize.io -->
    <style>

    @font-face {
        font-family: "Fira Code";
        src: local("FiraCode-Regular"),
                url("https://cdnjs.cloudflare.com/ajax/libs/firacode/6.2.0/woff2/FiraCode-Regular.woff2") format("woff2"),
                url("https://cdnjs.cloudflare.com/ajax/libs/firacode/6.2.0/woff/FiraCode-Regular.woff") format("woff");
        font-style: normal;
        font-weight: 400;
    }
    @font-face {
        font-family: "Fira Code";
        src: local("FiraCode-Bold"),
                url("https://cdnjs.cloudflare.com/ajax/libs/firacode/6.2.0/woff2/FiraCode-Bold.woff2") format("woff2"),
                url("https://cdnjs.cloudflare.com/ajax/libs/firacode/6.2.0/woff/FiraCode-Bold.woff") format("woff");
        font-style: bold;
        font-weight: 700;
    }

    .terminal-166846049-matrix {
        font-family: Fira Code, monospace;
        font-size: 20px;
        line-height: 24.4px;
        font-variant-east-asian: full-width;
    }

    .terminal-166846049-title {
        font-size: 18px;
        font-weight: bold;
        font-family: arial;
    }

    .terminal-166846049-r1 { fill: #c5c8c6 }
.terminal-166846049-r2 { fill: #e0e0e0 }
.terminal-166846049-r3 { fill: #e0e0e0;font-weight: bold }
.terminal-166846049-r4 { fill: #a1a1a1 }
.terminal-166846049-r5 { fill: #fea62b }
.terminal-166846049-r6 { fill: #ebe7e3;font-weight: bold }
.terminal-166846049-r7 { fill: #ffff00;font-weight: bold }
.terminal-166846049-r8 { fill: #00ffff;font-weight: bold }
.terminal-166846049-r9 { fill: #121212 }
.terminal-166846049-r10 { fill: #ffff00 }
.terminal-166846049-r11 { fill: #999999 }
.terminal-166846049-r12 { fill: #008000 }
.terminal-166846049-r13 { fill: #000000 }
.terminal-166846049-r14 { fill: #ffa62b;font-weight: bold }
.terminal-166846049-r15 { fill: #495259 }
    </style>

    <defs>
    <clipPath id="terminal-166846049-clip-terminal">
      <rect x="0" y="0" width="975.0" height="584.5999999999999" />
    </clipPath>
    <clipPath id="terminal-166846049-line-0">
    <rect x="0" y="1.5" width="976" height="24.65"/>
            </clipPath>
<clipPath id="terminal-166846049-line-1">
    <rect x="0" y="25.9" width="976" height="24.65"/>
            </clipPath>
<clipPath id="terminal-166846049-line-2">
    <rect x="0" y="50.3" width="976" height="24.65"/>
            </clipPath>
<clipPath id="terminal-166846049-line-3">
    <rect x="0" y="74.7" width="976" height="24.65"/>
            </clipPath>
<clipPath id="terminal-166846049-line-4">
    <rect x="0" y="99.1" width="976" height="24.65"/>
            </clipPath>
<clipPath id="terminal-166846049-line-5">
    <rect x="0" y="123.5" width="976" height="24.65"/>
            </clipPath>
<clipPath id="terminal-166846049-line-6">
    <rect x="0" y="147.9" width="976" height="24.65"/>
            </clipPath>
<clipPath id="terminal-166846049-line-7">
    <rect x="0" y="172.3" width="976" height="24.65"/>
            </clipPath>
<clipPath id="terminal-166846049-line-8">
    <rect x="0" y="196.7" width="976" height="24.65"/>
            </clipPath>
<clipPath id="terminal-166846049-line-9">
    <rect x="0" y="221.1" width="976" height="24.65"/>
            </clipPath>
<clipPath id="terminal-166846049-line-10">
    <rect x="0" y="245.5" width="976" height="24.65"/>
            </clipPath>
<clipPath id="terminal-166846049-line-11">
    <rect x="0" y="269.9" width="976" height="24.65"/>
            </clipPath>
<clipPath id="terminal-166846049-line-12">
    <rect x="0" y="294.3" width="976" height="24.65"/>
            </clipPath>
<clipPath id="terminal-166846049-line-13">
    <rect x="0" y="318.7" width="976" height="24.65"/>
            </clipPath>
<clipPath id="terminal-166846049-line-14">
    <rect x="0" y="343.1" width="976" height="24.65"/>
            </clipPath>
<clipPath id="terminal-166846049-line-15">
    <rect x="0" y="367.5" width="976" height="24.65"/>
            </clipPath>
<clipPath id="terminal-166846049-line-16">
    <rect x="0" y="391.9" width="976" height="24.65"/>
            </clipPath>
<clipPath id="terminal-166846049-line-17">
    <rect x="0" y="416.3" width="976" height="24.65"/>
            </clipPath>
<clipPath id="terminal-166846049-line-18">
    <rect x="0" y="440.7" width="976" height="24.65"/>
            </clipPath>
<clipPath id="terminal-166846049-line-19">
    <rect x="0" y="465.1" width="976" height="24.65"/>
            </clipPath>
<clipPath id="terminal-166846049-line-20">
    <rect x="0" y="489.5" width="976" height="24.65"/>
            </clipPath>
<clipPath id="terminal-166846049-line-21">
    <rect x="0" y="513.9" width="976" height="24.65"/>
            </clipPath>
<clipPath id="terminal-166846049-line-22">
    <rect x="0" y="538.3" width="976" height="24.65"/>
            </clipPath>
    </defs>

    <rect fill="#292929" stroke="rgba(255,255,255,0.35)" stroke-width="1" x="1" y="1" width="992" height="633.6" rx="8"/><text class="terminal-166846049-title" fill="#c5c8c6" text-anchor="middle" x="496" y="27">Crucible&#160;—&#160;Experiment&#160;Designs</text>
            <g transform="translate(26,22)">
            <circle cx="0" cy="0" r="7" fill="#ff5f57"/>
            <circle cx="22" cy="0" r="7" fill="#febc2e"/>
            <circle cx="44" cy="0" r="7" fill="#28c840"/>
            </g>
        
    <g transform="translate(9, 41)" clip-path="url(#terminal-166846049-clip-terminal)">
    <rect fill="#242f38" x="0" y="1.5" width="12.2" height="24.65" shape-rendering="crispEdges"/><rect fill="#242f38" x="12.2" y="1.5" width="12.2" height="24.65" shape-rendering="crispEdges"/><rect fill="#242f38" x="24.4" y="1.5" width="61" height="24.65" shape-rendering="crispEdges"/><rect fill="#242f38" x="85.4" y="1.5" width="12.2" height="24.65" shape-rendering="crispEdges"/><rect fill="#242f38" x="97.6" y="1.5" width="195.2" height="24.65" shape-rendering="crispEdges"/><rect fill="#242f38" x="292.8" y="1.5" width="353.8" height="24.65" shape-rendering="crispEdges"/><rect fill="#242f38" x="646.6" y="1.5" width="207.4" height="24.65" shape-rendering="crispEdges"/><rect fill="#242f38" x="854" y="1.5" width="12.2" height="24.65" shape-rendering="crispEdges"/><rect fill="#242f38" x="866.2" y="1.5" width="0" height="24.65" shape-rendering="crispEdges"/><rect fill="#242f38" x="866.2" y="1.5" width="97.6" height="24.65" shape-rendering="crispEdges"/><rect fill="#242f38" x="963.8" y="1.5" width="12.2" height="24.65" shape-rendering="crispEdges"/><rect fill="#272727" x="0" y="25.9" width="195.2" height="24.65" shape-rendering="crispEdges"/><rect fill="#272727" x="195.2" y="25.9" width="12.2" height="24.65" shape-rendering="crispEdges"/><rect fill="#272727" x="207.4" y="25.9" width="36.6" height="24.65" shape-rendering="crispEdges"/><rect fill="#272727" x="244" y="25.9" width="207.4" height="24.65" shape-rendering="crispEdges"/><rect fill="#121212" x="451.4" y="25.9" width="12.2" height="24.65" shape-rendering="crispEdges"/><rect fill="#121212" x="463.6" y="25.9" width="512.4" height="24.65" shape-rendering="crispEdges"/><rect fill="#674d28" x="0" y="50.3" width="24.4" height="24.65" shape-rendering="crispEdges"/><rect fill="#674d28" x="24.4" y="50.3" width="12.2" height="24.65" shape-rendering="crispEdges"/><rect fill="#674d28" x="36.6" y="50.3" width="256.2" height="24.65" shape-rendering="crispEdges"/><rect fill="#674d28" x="292.8" y="50.3" width="158.6" height="24.65" shape-rendering="crispEdges"/><rect fill="#121212" x="451.4" y="50.3" width="12.2" height="24.65" shape-rendering="crispEdges"/><rect fill="#121212" x="463.6" y="50.3" width="24.4" height="24.65" shape-rendering="crispEdges"/><rect fill="#121212" x="488" y="50.3" width="195.2" height="24.65" shape-rendering="crispEdges"/><rect fill="#121212" x="683.2" y="50.3" width="244" height="24.65" shape-rendering="crispEdges"/><rect fill="#003054" x="927.2" y="50.3" width="24.4" height="24.65" shape-rendering="crispEdges"/><rect fill="#121212" x="951.6" y="50.3" width="24.4" height="24.65" shape-rendering="crispEdges"/><rect fill="#272727" x="0" y="74.7" width="24.4" height="24.65" shape-rendering="crispEdges"/><rect fill="#272727" x="24.4" y="74.7" width="12.2" height="24.65" shape-rendering="crispEdges"/><rect fill="#272727" x="36.6" y="74.7" width="183" height="24.65" shape-rendering="crispEdges"/><rect fill="#272727" x="219.6" y="74.7" width="231.8" height="24.65" shape-rendering="crispEdges"/><rect fill="#121212" x="451.4" y="74.7" width="12.2" height="24.65" shape-rendering="crispEdges"/><rect fill="#121212" x="463.6" y="74.7" width="24.4" height="24.65" shape-rendering="crispEdges"/><rect fill="#121212" x="488" y="74.7" width="244" height="24.65" shape-rendering="crispEdges"/><rect fill="#121212" x="732" y="74.7" width="195.2" height="24.65" shape-rendering="crispEdges"/><rect fill="#003054" x="927.2" y="74.7" width="24.4" height="24.65" shape-rendering="crispEdges"/><rect fill="#121212" x="951.6" y="74.7" width="24.4" height="24.65" shape-rendering="crispEdges"/><rect fill="#272727" x="0" y="99.1" width="24.4" height="24.65" shape-rendering="crispEdges"/><rect fill="#272727" x="24.4" y="99.1" width="12.2" height="24.65" shape-rendering="crispEdges"/><rect fill="#272727" x="36.6" y="99.1" width="183" height="24.65" shape-rendering="crispEdges"/><rect fill="#272727" x="219.6" y="99.1" width="231.8" height="24.65" shape-rendering="crispEdges"/><rect fill="#121212" x="451.4" y="99.1" width="12.2" height="24.65" shape-rendering="crispEdges"/><rect fill="#121212" x="463.6" y="99.1" width="24.4" height="24.65" shape-rendering="crispEdges"/><rect fill="#121212" x="488" y="99.1" width="0" height="24.65" shape-rendering="crispEdges"/><rect fill="#121212" x="488" y="99.1" width="439.2" height="24.65" shape-rendering="crispEdges"/><rect fill="#003054" x="927.2" y="99.1" width="24.4" height="24.65" shape-rendering="crispEdges"/><rect fill="#121212" x="951.6" y="99.1" width="24.4" height="24.65" shape-rendering="crispEdges"/><rect fill="#272727" x="0" y="123.5" width="24.4" height="24.65" shape-rendering="crispEdges"/><rect fill="#272727" x="24.4" y="123.5" width="12.2" height="24.65" shape-rendering="crispEdges"/><rect fill="#272727" x="36.6" y="123.5" width="183" height="24.65" shape-rendering="crispEdges"/><rect fill="#272727" x="219.6" y="123.5" width="231.8" height="24.65" shape-rendering="crispEdges"/><rect fill="#121212" x="451.4" y="123.5" width="12.2" height="24.65" shape-rendering="crispEdges"/><rect fill="#121212" x="463.6" y="123.5" width="24.4" height="24.65" shape-rendering="crispEdges"/><rect fill="#121212" x="488" y="123.5" width="24.4" height="24.65" shape-rendering="crispEdges"/><rect fill="#121212" x="512.4" y="123.5" width="24.4" height="24.65" shape-rendering="crispEdges"/><rect fill="#121212" x="536.8" y="123.5" width="280.6" height="24.65" shape-rendering="crispEdges"/><rect fill="#121212" x="817.4" y="123.5" width="24.4" height="24.65" shape-rendering="crispEdges"/><rect fill="#121212" x="841.8" y="123.5" width="85.4" height="24.65" shape-rendering="crispEdges"/><rect fill="#003054" x="927.2" y="123.5" width="24.4" height="24.65" shape-rendering="crispEdges"/><rect fill="#121212" x="951.6" y="123.5" width="24.4" height="24.65" shape-rendering="crispEdges"/><rect fill="#272727" x="0" y="147.9" width="24.4" height="24.65" shape-rendering="crispEdges"/><rect fill="#272727" x="24.4" y="147.9" width="12.2" height="24.65" shape-rendering="crispEdges"/><rect fill="#272727" x="36.6" y="147.9" width="146.4" height="24.65" shape-rendering="crispEdges"/><rect fill="#272727" x="183" y="147.9" width="268.4" height="24.65" shape-rendering="crispEdges"/><rect fill="#121212" x="451.4" y="147.9" width="12.2" height="24.65" shape-rendering="crispEdges"/><rect fill="#121212" x="463.6" y="147.9" width="24.4" height="24.65" shape-rendering="crispEdges"/><rect fill="#121212" x="488" y="147.9" width="170.8" height="24.65" shape-rendering="crispEdges"/><rect fill="#121212" x="658.8" y="147.9" width="268.4" height="24.65" shape-rendering="crispEdges"/><rect fill="#003054" x="927.2" y="147.9" width="24.4" height="24.65" shape-rendering="crispEdges"/><rect fill="#121212" x="951.6" y="147.9" width="24.4" height="24.65" shape-rendering="crispEdges"/><rect fill="#272727" x="0" y="172.3" width="24.4" height="24.65" shape-rendering="crispEdges"/><rect fill="#272727" x="24.4" y="172.3" width="12.2" height="24.65" shape-rendering="crispEdges"/><rect fill="#272727" x="36.6" y="172.3" width="146.4" height="24.65" shape-rendering="crispEdges"/><rect fill="#272727" x="183" y="172.3" width="268.4" height="24.65" shape-rendering="crispEdges"/><rect fill="#121212" x="451.4" y="172.3" width="12.2" height="24.65" shape-rendering="crispEdges"/><rect fill="#121212" x="463.6" y="172.3" width="24.4" height="24.65" shape-rendering="crispEdges"/><rect fill="#121212" x="488" y="172.3" width="390.4" height="24.65" shape-rendering="crispEdges"/><rect fill="#121212" x="878.4" y="172.3" width="48.8" height="24.65" shape-rendering="crispEdges"/><rect fill="#003054" x="927.2" y="172.3" width="24.4" height="24.65" shape-rendering="crispEdges"/><rect fill="#121212" x="951.6" y="172.3" width="24.4" height="24.65" shape-rendering="crispEdges"/><rect fill="#272727" x="0" y="196.7" width="24.4" height="24.65" shape-rendering="crispEdges"/><rect fill="#272727" x="24.4" y="196.7" width="12.2" height="24.65" shape-rendering="crispEdges"/><rect fill="#272727" x="36.6" y="196.7" width="134.2" height="24.65" shape-rendering="crispEdges"/><rect fill="#272727" x="170.8" y="196.7" width="280.6" height="24.65" shape-rendering="crispEdges"/><rect fill="#121212" x="451.4" y="196.7" width="12.2" height="24.65" shape-rendering="crispEdges"/><rect fill="#121212" x="463.6" y="196.7" width="24.4" height="24.65" shape-rendering="crispEdges"/><rect fill="#121212" x="488" y="196.7" width="439.2" height="24.65" shape-rendering="crispEdges"/><rect fill="#003054" x="927.2" y="196.7" width="24.4" height="24.65" shape-rendering="crispEdges"/><rect fill="#121212" x="951.6" y="196.7" width="24.4" height="24.65" shape-rendering="crispEdges"/><rect fill="#272727" x="0" y="221.1" width="24.4" height="24.65" shape-rendering="crispEdges"/><rect fill="#272727" x="24.4" y="221.1" width="12.2" height="24.65" shape-rendering="crispEdges"/><rect fill="#272727" x="36.6" y="221.1" width="158.6" height="24.65" shape-rendering="crispEdges"/><rect fill="#272727" x="195.2" y="221.1" width="256.2" height="24.65" shape-rendering="crispEdges"/><rect fill="#121212" x="451.4" y="221.1" width="12.2" height="24.65" shape-rendering="crispEdges"/><rect fill="#121212" x="463.6" y="221.1" width="24.4" height="24.65" shape-rendering="crispEdges"/><rect fill="#121212" x="488" y="221.1" width="439.2" height="24.65" shape-rendering="crispEdges"/><rect fill="#003054" x="927.2" y="221.1" width="24.4" height="24.65" shape-rendering="crispEdges"/><rect fill="#121212" x="951.6" y="221.1" width="24.4" height="24.65" shape-rendering="crispEdges"/><rect fill="#272727" x="0" y="245.5" width="195.2" height="24.65" shape-rendering="crispEdges"/><rect fill="#272727" x="195.2" y="245.5" width="12.2" height="24.65" shape-rendering="crispEdges"/><rect fill="#272727" x="207.4" y="245.5" width="36.6" height="24.65" shape-rendering="crispEdges"/><rect fill="#272727" x="244" y="245.5" width="207.4" height="24.65" shape-rendering="crispEdges"/><rect fill="#121212" x="451.4" y="245.5" width="12.2" height="24.65" shape-rendering="crispEdges"/><rect fill="#121212" x="463.6" y="245.5" width="24.4" height="24.65" shape-rendering="crispEdges"/><rect fill="#121212" x="488" y="245.5" width="439.2" height="24.65" shape-rendering="crispEdges"/><rect fill="#003054" x="927.2" y="245.5" width="24.4" height="24.65" shape-rendering="crispEdges"/><rect fill="#121212" x="951.6" y="245.5" width="24.4" height="24.65" shape-rendering="crispEdges"/><rect fill="#272727" x="0" y="269.9" width="24.4" height="24.65" shape-rendering="crispEdges"/><rect fill="#272727" x="24.4" y="269.9" width="12.2" height="24.65" shape-rendering="crispEdges"/><rect fill="#272727" x="36.6" y="269.9" width="146.4" height="24.65" shape-rendering="crispEdges"/><rect fill="#272727" x="183" y="269.9" width="268.4" height="24.65" shape-rendering="crispEdges"/><rect fill="#121212" x="451.4" y="269.9" width="12.2" height="24.65" shape-rendering="crispEdges"/><rect fill="#121212" x="463.6" y="269.9" width="24.4" height="24.65" shape-rendering="crispEdges"/><rect fill="#121212" x="488" y="269.9" width="439.2" height="24.65" shape-rendering="crispEdges"/><rect fill="#003054" x="927.2" y="269.9" width="24.4" height="24.65" shape-rendering="crispEdges"/><rect fill="#121212" x="951.6" y="269.9" width="24.4" height="24.65" shape-rendering="crispEdges"/><rect fill="#272727" x="0" y="294.3" width="24.4" height="24.65" shape-rendering="crispEdges"/><rect fill="#272727" x="24.4" y="294.3" width="12.2" height="24.65" shape-rendering="crispEdges"/><rect fill="#272727" x="36.6" y="294.3" width="329.4" height="24.65" shape-rendering="crispEdges"/><rect fill="#272727" x="366" y="294.3" width="85.4" height="24.65" shape-rendering="crispEdges"/><rect fill="#121212" x="451.4" y="294.3" width="12.2" height="24.65" shape-rendering="crispEdges"/><rect fill="#121212" x="463.6" y="294.3" width="24.4" height="24.65" shape-rendering="crispEdges"/><rect fill="#121212" x="488" y="294.3" width="439.2" height="24.65" shape-rendering="crispEdges"/><rect fill="#003054" x="927.2" y="294.3" width="24.4" height="24.65" shape-rendering="crispEdges"/><rect fill="#121212" x="951.6" y="294.3" width="24.4" height="24.65" shape-rendering="crispEdges"/><rect fill="#272727" x="0" y="318.7" width="24.4" height="24.65" shape-rendering="crispEdges"/><rect fill="#272727" x="24.4" y="318.7" width="12.2" height="24.65" shape-rendering="crispEdges"/><rect fill="#272727" x="36.6" y="318.7" width="219.6" height="24.65" shape-rendering="crispEdges"/><rect fill="#272727" x="256.2" y="318.7" width="195.2" height="24.65" shape-rendering="crispEdges"/><rect fill="#121212" x="451.4" y="318.7" width="12.2" height="24.65" shape-rendering="crispEdges"/><rect fill="#121212" x="463.6" y="318.7" width="24.4" height="24.65" shape-rendering="crispEdges"/><rect fill="#121212" x="488" y="318.7" width="439.2" height="24.65" shape-rendering="crispEdges"/><rect fill="#003054" x="927.2" y="318.7" width="24.4" height="24.65" shape-rendering="crispEdges"/><rect fill="#121212" x="951.6" y="318.7" width="24.4" height="24.65" shape-rendering="crispEdges"/><rect fill="#272727" x="0" y="343.1" width="24.4" height="24.65" shape-rendering="crispEdges"/><rect fill="#272727" x="24.4" y="343.1" width="12.2" height="24.65" shape-rendering="crispEdges"/><rect fill="#272727" x="36.6" y="343.1" width="170.8" height="24.65" shape-rendering="crispEdges"/><rect fill="#272727" x="207.4" y="343.1" width="244" height="24.65" shape-rendering="crispEdges"/><rect fill="#121212" x="451.4" y="343.1" width="12.2" height="24.65" shape-rendering="crispEdges"/><rect fill="#121212" x="463.6" y="343.1" width="24.4" height="24.65" shape-rendering="crispEdges"/><rect fill="#121212" x="488" y="343.1" width="439.2" height="24.65" shape-rendering="crispEdges"/><rect fill="#003054" x="927.2" y="343.1" width="24.4" height="24.65" shape-rendering="crispEdges"/><rect fill="#121212" x="951.6" y="343.1" width="24.4" height="24.65" shape-rendering="crispEdges"/><rect fill="#272727" x="0" y="367.5" width="24.4" height="24.65" shape-rendering="crispEdges"/><rect fill="#272727" x="24.4" y="367.5" width="12.2" height="24.65" shape-rendering="crispEdges"/><rect fill="#272727" x="36.6" y="367.5" width="170.8" height="24.65" shape-rendering="crispEdges"/><rect fill="#272727" x="207.4" y="367.5" width="244" height="24.65" shape-rendering="crispEdges"/><rect fill="#121212" x="451.4" y="367.5" width="12.2" height="24.65" shape-rendering="crispEdges"/><rect fill="#121212" x="463.6" y="367.5" width="24.4" height="24.65" shape-rendering="crispEdges"/><rect fill="#121212" x="488" y="367.5" width="439.2" height="24.65" shape-rendering="crispEdges"/><rect fill="#003054" x="927.2" y="367.5" width="24.4" height="24.65" shape-rendering="crispEdges"/><rect fill="#121212" x="951.6" y="367.5" width="24.4" height="24.65" shape-rendering="crispEdges"/><rect fill="#272727" x="0" y="391.9" width="170.8" height="24.65" shape-rendering="crispEdges"/><rect fill="#272727" x="170.8" y="391.9" width="12.2" height="24.65" shape-rendering="crispEdges"/><rect fill="#272727" x="183" y="391.9" width="36.6" height="24.65" shape-rendering="crispEdges"/><rect fill="#272727" x="219.6" y="391.9" width="231.8" height="24.65" shape-rendering="crispEdges"/><rect fill="#121212" x="451.4" y="391.9" width="12.2" height="24.65" shape-rendering="crispEdges"/><rect fill="#121212" x="463.6" y="391.9" width="24.4" height="24.65" shape-rendering="crispEdges"/><rect fill="#121212" x="488" y="391.9" width="439.2" height="24.65" shape-rendering="crispEdges"/><rect fill="#000000" x="927.2" y="391.9" width="24.4" height="24.65" shape-rendering="crispEdges"/><rect fill="#121212" x="951.6" y="391.9" width="24.4" height="24.65" shape-rendering="crispEdges"/><rect fill="#272727" x="0" y="416.3" width="24.4" height="24.65" shape-rendering="crispEdges"/><rect fill="#272727" x="24.4" y="416.3" width="12.2" height="24.65" shape-rendering="crispEdges"/><rect fill="#272727" x="36.6" y="416.3" width="231.8" height="24.65" shape-rendering="crispEdges"/><rect fill="#272727" x="268.4" y="416.3" width="183" height="24.65" shape-rendering="crispEdges"/><rect fill="#121212" x="451.4" y="416.3" width="12.2" height="24.65" shape-rendering="crispEdges"/><rect fill="#121212" x="463.6" y="416.3" width="24.4" height="24.65" shape-rendering="crispEdges"/><rect fill="#121212" x="488" y="416.3" width="439.2" height="24.65" shape-rendering="crispEdges"/><rect fill="#000000" x="927.2" y="416.3" width="24.4" height="24.65" shape-rendering="crispEdges"/><rect fill="#121212" x="951.6" y="416.3" width="24.4" height="24.65" shape-rendering="crispEdges"/><rect fill="#272727" x="0" y="440.7" width="24.4" height="24.65" shape-rendering="crispEdges"/><rect fill="#272727" x="24.4" y="440.7" width="12.2" height="24.65" shape-rendering="crispEdges"/><rect fill="#272727" x="36.6" y="440.7" width="183" height="24.65" shape-rendering="crispEdges"/><rect fill="#272727" x="219.6" y="440.7" width="231.8" height="24.65" shape-rendering="crispEdges"/><rect fill="#121212" x="451.4" y="440.7" width="12.2" height="24.65" shape-rendering="crispEdges"/><rect fill="#121212" x="463.6" y="440.7" width="24.4" height="24.65" shape-rendering="crispEdges"/><rect fill="#121212" x="488" y="440.7" width="439.2" height="24.65" shape-rendering="crispEdges"/><rect fill="#000000" x="927.2" y="440.7" width="24.4" height="24.65" shape-rendering="crispEdges"/><rect fill="#121212" x="951.6" y="440.7" width="24.4" height="24.65" shape-rendering="crispEdges"/><rect fill="#272727" x="0" y="465.1" width="24.4" height="24.65" shape-rendering="crispEdges"/><rect fill="#272727" x="24.4" y="465.1" width="12.2" height="24.65" shape-rendering="crispEdges"/><rect fill="#272727" x="36.6" y="465.1" width="170.8" height="24.65" shape-rendering="crispEdges"/><rect fill="#272727" x="207.4" y="465.1" width="244" height="24.65" shape-rendering="crispEdges"/><rect fill="#121212" x="451.4" y="465.1" width="12.2" height="24.65" shape-rendering="crispEdges"/><rect fill="#121212" x="463.6" y="465.1" width="24.4" height="24.65" shape-rendering="crispEdges"/><rect fill="#121212" x="488" y="465.1" width="439.2" height="24.65" shape-rendering="crispEdges"/><rect fill="#000000" x="927.2" y="465.1" width="24.4" height="24.65" shape-rendering="crispEdges"/><rect fill="#121212" x="951.6" y="465.1" width="24.4" height="24.65" shape-rendering="crispEdges"/><rect fill="#272727" x="0" y="489.5" width="24.4" height="24.65" shape-rendering="crispEdges"/><rect fill="#272727" x="24.4" y="489.5" width="12.2" height="24.65" shape-rendering="crispEdges"/><rect fill="#272727" x="36.6" y="489.5" width="244" height="24.65" shape-rendering="crispEdges"/><rect fill="#272727" x="280.6" y="489.5" width="170.8" height="24.65" shape-rendering="crispEdges"/><rect fill="#121212" x="451.4" y="489.5" width="12.2" height="24.65" shape-rendering="crispEdges"/><rect fill="#121212" x="463.6" y="489.5" width="24.4" height="24.65" shape-rendering="crispEdges"/><rect fill="#121212" x="488" y="489.5" width="439.2" height="24.65" shape-rendering="crispEdges"/><rect fill="#000000" x="927.2" y="489.5" width="24.4" height="24.65" shape-rendering="crispEdges"/><rect fill="#121212" x="951.6" y="489.5" width="24.4" height="24.65" shape-rendering="crispEdges"/><rect fill="#272727" x="0" y="513.9" width="451.4" height="24.65" shape-rendering="crispEdges"/><rect fill="#121212" x="451.4" y="513.9" width="12.2" height="24.65" shape-rendering="crispEdges"/><rect fill="#121212" x="463.6" y="513.9" width="24.4" height="24.65" shape-rendering="crispEdges"/><rect fill="#121212" x="488" y="513.9" width="439.2" height="24.65" shape-rendering="crispEdges"/><rect fill="#000000" x="927.2" y="513.9" width="24.4" height="24.65" shape-rendering="crispEdges"/><rect fill="#121212" x="951.6" y="513.9" width="24.4" height="24.65" shape-rendering="crispEdges"/><rect fill="#272727" x="0" y="538.3" width="451.4" height="24.65" shape-rendering="crispEdges"/><rect fill="#121212" x="451.4" y="538.3" width="12.2" height="24.65" shape-rendering="crispEdges"/><rect fill="#121212" x="463.6" y="538.3" width="512.4" height="24.65" shape-rendering="crispEdges"/><rect fill="#242f38" x="0" y="562.7" width="36.6" height="24.65" shape-rendering="crispEdges"/><rect fill="#242f38" x="36.6" y="562.7" width="61" height="24.65" shape-rendering="crispEdges"/><rect fill="#242f38" x="97.6" y="562.7" width="36.6" height="24.65" shape-rendering="crispEdges"/><rect fill="#242f38" x="134.2" y="562.7" width="61" height="24.65" shape-rendering="crispEdges"/><rect fill="#242f38" x="195.2" y="562.7" width="36.6" height="24.65" shape-rendering="crispEdges"/><rect fill="#242f38" x="231.8" y="562.7" width="85.4" height="24.65" shape-rendering="crispEdges"/><rect fill="#242f38" x="317.2" y="562.7" width="36.6" height="24.65" shape-rendering="crispEdges"/><rect fill="#242f38" x="353.8" y="562.7" width="97.6" height="24.65" shape-rendering="crispEdges"/><rect fill="#242f38" x="451.4" y="562.7" width="36.6" height="24.65" shape-rendering="crispEdges"/><rect fill="#242f38" x="488" y="562.7" width="48.8" height="24.65" shape-rendering="crispEdges"/><rect fill="#242f38" x="536.8" y="562.7" width="36.6" height="24.65" shape-rendering="crispEdges"/><rect fill="#242f38" x="573.4" y="562.7" width="97.6" height="24.65" shape-rendering="crispEdges"/><rect fill="#242f38" x="671" y="562.7" width="36.6" height="24.65" shape-rendering="crispEdges"/><rect fill="#242f38" x="707.6" y="562.7" width="61" height="24.65" shape-rendering="crispEdges"/><rect fill="#242f38" x="768.6" y="562.7" width="61" height="24.65" shape-rendering="crispEdges"/><rect fill="#242f38" x="829.6" y="562.7" width="12.2" height="24.65" shape-rendering="crispEdges"/><rect fill="#242f38" x="841.8" y="562.7" width="24.4" height="24.65" shape-rendering="crispEdges"/><rect fill="#242f38" x="866.2" y="562.7" width="97.6" height="24.65" shape-rendering="crispEdges"/><rect fill="#242f38" x="963.8" y="562.7" width="12.2" height="24.65" shape-rendering="crispEdges"/>
    <g class="terminal-166846049-matrix">
    <text class="terminal-166846049-r2" x="12.2" y="20" textLength="12.2" clip-path="url(#terminal-166846049-line-0)">⭘</text><text class="terminal-166846049-r2" x="292.8" y="20" textLength="353.8" clip-path="url(#terminal-166846049-line-0)">Crucible&#160;—&#160;Experiment&#160;Designs</text><text class="terminal-166846049-r1" x="976" y="20" textLength="12.2" clip-path="url(#terminal-166846049-line-0)">
</text><text class="terminal-166846049-r3" x="0" y="44.4" textLength="195.2" clip-path="url(#terminal-166846049-line-1)">Activation&#160;Sweep</text><text class="terminal-166846049-r4" x="207.4" y="44.4" textLength="36.6" clip-path="url(#terminal-166846049-line-1)">(8)</text><text class="terminal-166846049-r5" x="451.4" y="44.4" textLength="12.2" clip-path="url(#terminal-166846049-line-1)">│</text><text class="terminal-166846049-r1" x="976" y="44.4" textLength="12.2" clip-path="url(#terminal-166846049-line-1)">
</text><text class="terminal-166846049-r7" x="24.4" y="68.8" textLength="12.2" clip-path="url(#terminal-166846049-line-2)">●</text><text class="terminal-166846049-r6" x="36.6" y="68.8" textLength="256.2" clip-path="url(#terminal-166846049-line-2)">&#160;act-relu-sq-baseline</text><text class="terminal-166846049-r5" x="451.4" y="68.8" textLength="12.2" clip-path="url(#terminal-166846049-line-2)">│</text><text class="terminal-166846049-r8" x="488" y="68.8" textLength="195.2" clip-path="url(#terminal-166846049-line-2)">Version&#160;history:</text><text class="terminal-166846049-r1" x="976" y="68.8" textLength="12.2" clip-path="url(#terminal-166846049-line-2)">
</text><text class="terminal-166846049-r10" x="24.4" y="93.2" textLength="12.2" clip-path="url(#terminal-166846049-line-3)">●</text><text class="terminal-166846049-r2" x="36.6" y="93.2" textLength="183" clip-path="url(#terminal-166846049-line-3)">&#160;act-leaky01-sq</text><text class="terminal-166846049-r5" x="451.4" y="93.2" textLength="12.2" clip-path="url(#terminal-166846049-line-3)">│</text><text class="terminal-166846049-r8" x="488" y="93.2" textLength="244" clip-path="url(#terminal-166846049-line-3)">act-relu-sq-baseline</text><text class="terminal-166846049-r1" x="976" y="93.2" textLength="12.2" clip-path="url(#terminal-166846049-line-3)">
</text><text class="terminal-166846049-r10" x="24.4" y="117.6" textLength="12.2" clip-path="url(#terminal-166846049-line-4)">●</text><text class="terminal-166846049-r2" x="36.6" y="117.6" textLength="183" clip-path="url(#terminal-166846049-line-4)">&#160;act-leaky02-sq</text><text class="terminal-166846049-r5" x="451.4" y="117.6" textLength="12.2" clip-path="url(#terminal-166846049-line-4)">│</text><text class="terminal-166846049-r1" x="976" y="117.6" textLength="12.2" clip-path="url(#terminal-166846049-line-4)">
</text><text class="terminal-166846049-r10" x="24.4" y="142" textLength="12.2" clip-path="url(#terminal-166846049-line-5)">●</text><text class="terminal-166846049-r2" x="36.6" y="142" textLength="183" clip-path="url(#terminal-166846049-line-5)">&#160;act-leaky08-sq</text><text class="terminal-166846049-r5" x="451.4" y="142" textLength="12.2" clip-path="url(#terminal-166846049-line-5)">│</text><text class="terminal-166846049-r3" x="512.4" y="142" textLength="24.4" clip-path="url(#terminal-166846049-line-5)">v1</text><text class="terminal-166846049-r2" x="536.8" y="142" textLength="280.6" clip-path="url(#terminal-166846049-line-5)">&#160;&#160;2026-03-21T19:23:19&#160;&#160;</text><text class="terminal-166846049-r11" x="817.4" y="142" textLength="24.4" clip-path="url(#terminal-166846049-line-5)">by</text><text class="terminal-166846049-r1" x="976" y="142" textLength="12.2" clip-path="url(#terminal-166846049-line-5)">
</text><text class="terminal-166846049-r10" x="24.4" y="166.4" textLength="12.2" clip-path="url(#terminal-166846049-line-6)">●</text><text class="terminal-166846049-r2" x="36.6" y="166.4" textLength="146.4" clip-path="url(#terminal-166846049-line-6)">&#160;act-mish-sq</text><text class="terminal-166846049-r5" x="451.4" y="166.4" textLength="12.2" clip-path="url(#terminal-166846049-line-6)">│</text><text class="terminal-166846049-r11" x="488" y="166.4" textLength="170.8" clip-path="url(#terminal-166846049-line-6)">research-agent</text><text class="terminal-166846049-r1" x="976" y="166.4" textLength="12.2" clip-path="url(#terminal-166846049-line-6)">
</text><text class="terminal-166846049-r10" x="24.4" y="190.8" textLength="12.2" clip-path="url(#terminal-166846049-line-7)">●</text><text class="terminal-166846049-r2" x="36.6" y="190.8" textLength="146.4" clip-path="url(#terminal-166846049-line-7)">&#160;act-gelu-sq</text><text class="terminal-166846049-r5" x="451.4" y="190.8" textLength="12.2" clip-path="url(#terminal-166846049-line-7)">│</text><text class="terminal-166846049-r2" x="488" y="190.8" textLength="390.4" clip-path="url(#terminal-166846049-line-7)">&#160;&#160;&#160;&#160;&#160;&#160;&#160;Activation&#160;sweep:&#160;relu_sq</text><text class="terminal-166846049-r1" x="976" y="190.8" textLength="12.2" clip-path="url(#terminal-166846049-line-7)">
</text><text class="terminal-166846049-r10" x="24.4" y="215.2" textLength="12.2" clip-path="url(#terminal-166846049-line-8)">●</text><text class="terminal-166846049-r2" x="36.6" y="215.2" textLength="134.2" clip-path="url(#terminal-166846049-line-8)">&#160;act-x-absx</text><text class="terminal-166846049-r5" x="451.4" y="215.2" textLength="12.2" clip-path="url(#terminal-166846049-line-8)">│</text><text class="terminal-166846049-r1" x="976" y="215.2" textLength="12.2" clip-path="url(#terminal-166846049-line-8)">
</text><text class="terminal-166846049-r12" x="24.4" y="239.6" textLength="12.2" clip-path="url(#terminal-166846049-line-9)">●</text><text class="terminal-166846049-r2" x="36.6" y="239.6" textLength="158.6" clip-path="url(#terminal-166846049-line-9)">&#160;act-elu03-sq</text><text class="terminal-166846049-r5" x="451.4" y="239.6" textLength="12.2" clip-path="url(#terminal-166846049-line-9)">│</text><text class="terminal-166846049-r1" x="976" y="239.6" textLength="12.2" clip-path="url(#terminal-166846049-line-9)">
</text><text class="terminal-166846049-r3" x="0" y="264" textLength="195.2" clip-path="url(#terminal-166846049-line-10)">Competition&#160;SOTA</text><text class="terminal-166846049-r4" x="207.4" y="264" textLength="36.6" clip-path="url(#terminal-166846049-line-10)">(5)</text><text class="terminal-166846049-r5" x="451.4" y="264" textLength="12.2" clip-path="url(#terminal-166846049-line-10)">│</text><text class="terminal-166846049-r1" x="976" y="264" textLength="12.2" clip-path="url(#terminal-166846049-line-10)">
</text><text class="terminal-166846049-r10" x="24.4" y="288.4" textLength="12.2" clip-path="url(#terminal-166846049-line-11)">●</text><text class="terminal-166846049-r2" x="36.6" y="288.4" textLength="146.4" clip-path="url(#terminal-166846049-line-11)">&#160;sota-3x-mlp</text><text class="terminal-166846049-r5" x="451.4" y="288.4" textLength="12.2" clip-path="url(#terminal-166846049-line-11)">│</text><text class="terminal-166846049-r1" x="976" y="288.4" textLength="12.2" clip-path="url(#terminal-166846049-line-11)">
</text><text class="terminal-166846049-r10" x="24.4" y="312.8" textLength="12.2" clip-path="url(#terminal-166846049-line-12)">●</text><text class="terminal-166846049-r2" x="36.6" y="312.8" textLength="329.4" clip-path="url(#terminal-166846049-line-12)">&#160;sota-11l-int6-smear-bigram</text><text class="terminal-166846049-r5" x="451.4" y="312.8" textLength="12.2" clip-path="url(#terminal-166846049-line-12)">│</text><text class="terminal-166846049-r1" x="976" y="312.8" textLength="12.2" clip-path="url(#terminal-166846049-line-12)">
</text><text class="terminal-166846049-r10" x="24.4" y="337.2" textLength="12.2" clip-path="url(#terminal-166846049-line-13)">●</text><text class="terminal-166846049-r2" x="36.6" y="337.2" textLength="219.6" clip-path="url(#terminal-166846049-line-13)">&#160;sota-partial-rope</text><text class="terminal-166846049-r5" x="451.4" y="337.2" textLength="12.2" clip-path="url(#terminal-166846049-line-13)">│</text><text class="terminal-166846049-r1" x="976" y="337.2" textLength="12.2" clip-path="url(#terminal-166846049-line-13)">
</text><text class="terminal-166846049-r10" x="24.4" y="361.6" textLength="12.2" clip-path="url(#terminal-166846049-line-14)">●</text><text class="terminal-166846049-r2" x="36.6" y="361.6" textLength="170.8" clip-path="url(#terminal-166846049-line-14)">&#160;sota-late-qat</text><text class="terminal-166846049-r5" x="451.4" y="361.6" textLength="12.2" clip-path="url(#terminal-166846049-line-14)">│</text><text class="terminal-166846049-r1" x="976" y="361.6" textLength="12.2" clip-path="url(#terminal-166846049-line-14)">
</text><text class="terminal-166846049-r12" x="24.4" y="386" textLength="12.2" clip-path="url(#terminal-166846049-line-15)">●</text><text class="terminal-166846049-r2" x="36.6" y="386" textLength="170.8" clip-path="url(#terminal-166846049-line-15)">&#160;sota-xsa-deep</text><text class="terminal-166846049-r5" x="451.4" y="386" textLength="12.2" clip-path="url(#terminal-166846049-line-15)">│</text><text class="terminal-166846049-r13" x="927.2" y="386" textLength="24.4" clip-path="url(#terminal-166846049-line-15)">▅▅</text><text class="terminal-166846049-r1" x="976" y="386" textLength="12.2" clip-path="url(#terminal-166846049-line-15)">
</text><text class="terminal-166846049-r3" x="0" y="410.4" textLength="170.8" clip-path="url(#terminal-166846049-line-16)">QLabs-Inspired</text><text class="terminal-166846049-r4" x="183" y="410.4" textLength="36.6" clip-path="url(#terminal-166846049-line-16)">(4)</text><text class="terminal-166846049-r5" x="451.4" y="410.4" textLength="12.2" clip-path="url(#terminal-166846049-line-16)">│</text><text class="terminal-166846049-r1" x="976" y="410.4" textLength="12.2" clip-path="url(#terminal-166846049-line-16)">
</text><text class="terminal-166846049-r10" x="24.4" y="434.8" textLength="12.2" clip-path="url(#terminal-166846049-line-17)">●</text><text class="terminal-166846049-r2" x="36.6" y="434.8" textLength="231.8" clip-path="url(#terminal-166846049-line-17)">&#160;qlabs-looped-8step</text><text class="terminal-166846049-r5" x="451.4" y="434.8" textLength="12.2" clip-path="url(#terminal-166846049-line-17)">│</text><text class="terminal-166846049-r1" x="976" y="434.8" textLength="12.2" clip-path="url(#terminal-166846049-line-17)">
</text><text class="terminal-166846049-r10" x="24.4" y="459.2" textLength="12.2" clip-path="url(#terminal-166846049-line-18)">●</text><text class="terminal-166846049-r2" x="36.6" y="459.2" textLength="183" clip-path="url(#terminal-166846049-line-18)">&#160;qlabs-heavy-wd</text><text class="terminal-166846049-r5" x="451.4" y="459.2" textLength="12.2" clip-path="url(#terminal-166846049-line-18)">│</text><text class="terminal-166846049-r1" x="976" y="459.2" textLength="12.2" clip-path="url(#terminal-166846049-line-18)">
</text><text class="terminal-166846049-r10" x="24.4" y="483.6" textLength="12.2" clip-path="url(#terminal-166846049-line-19)">●</text><text class="terminal-166846049-r2" x="36.6" y="483.6" textLength="170.8" clip-path="url(#terminal-166846049-line-19)">&#160;qlabs-dropout</text><text class="terminal-166846049-r5" x="451.4" y="483.6" textLength="12.2" clip-path="url(#terminal-166846049-line-19)">│</text><text class="terminal-166846049-r1" x="976" y="483.6" textLength="12.2" clip-path="url(#terminal-166846049-line-19)">
</text><text class="terminal-166846049-r10" x="24.4" y="508" textLength="12.2" clip-path="url(#terminal-166846049-line-20)">●</text><text class="terminal-166846049-r2" x="36.6" y="508" textLength="244" clip-path="url(#terminal-166846049-line-20)">&#160;qlabs-deep-loop-reg</text><text class="terminal-166846049-r5" x="451.4" y="508" textLength="12.2" clip-path="url(#terminal-166846049-line-20)">│</text><text class="terminal-166846049-r1" x="976" y="508" textLength="12.2" clip-path="url(#terminal-166846049-line-20)">
</text><text class="terminal-166846049-r5" x="451.4" y="532.4" textLength="12.2" clip-path="url(#terminal-166846049-line-21)">│</text><text class="terminal-166846049-r1" x="976" y="532.4" textLength="12.2" clip-path="url(#terminal-166846049-line-21)">
</text><text class="terminal-166846049-r5" x="451.4" y="556.8" textLength="12.2" clip-path="url(#terminal-166846049-line-22)">│</text><text class="terminal-166846049-r1" x="976" y="556.8" textLength="12.2" clip-path="url(#terminal-166846049-line-22)">
</text><text class="terminal-166846049-r14" x="0" y="581.2" textLength="36.6" clip-path="url(#terminal-166846049-line-23)">&#160;q&#160;</text><text class="terminal-166846049-r2" x="36.6" y="581.2" textLength="61" clip-path="url(#terminal-166846049-line-23)">Quit&#160;</text><text class="terminal-166846049-r14" x="97.6" y="581.2" textLength="36.6" clip-path="url(#terminal-166846049-line-23)">&#160;d&#160;</text><text class="terminal-166846049-r2" x="134.2" y="581.2" textLength="61" clip-path="url(#terminal-166846049-line-23)">Diff&#160;</text><text class="terminal-166846049-r14" x="195.2" y="581.2" textLength="36.6" clip-path="url(#terminal-166846049-line-23)">&#160;s&#160;</text><text class="terminal-166846049-r2" x="231.8" y="581.2" textLength="85.4" clip-path="url(#terminal-166846049-line-23)">Status&#160;</text><text class="terminal-166846049-r14" x="317.2" y="581.2" textLength="36.6" clip-path="url(#terminal-166846049-line-23)">&#160;h&#160;</text><text class="terminal-166846049-r2" x="353.8" y="581.2" textLength="97.6" clip-path="url(#terminal-166846049-line-23)">History&#160;</text><text class="terminal-166846049-r14" x="451.4" y="581.2" textLength="36.6" clip-path="url(#terminal-166846049-line-23)">&#160;r&#160;</text><text class="terminal-166846049-r2" x="488" y="581.2" textLength="48.8" clip-path="url(#terminal-166846049-line-23)">Run&#160;</text><text class="terminal-166846049-r14" x="536.8" y="581.2" textLength="36.6" clip-path="url(#terminal-166846049-line-23)">&#160;c&#160;</text><text class="terminal-166846049-r2" x="573.4" y="581.2" textLength="97.6" clip-path="url(#terminal-166846049-line-23)">Context&#160;</text><text class="terminal-166846049-r14" x="671" y="581.2" textLength="36.6" clip-path="url(#terminal-166846049-line-23)">&#160;?&#160;</text><text class="terminal-166846049-r2" x="707.6" y="581.2" textLength="61" clip-path="url(#terminal-166846049-line-23)">Help&#160;</text><text class="terminal-166846049-r15" x="829.6" y="581.2" textLength="12.2" clip-path="url(#terminal-166846049-line-23)">▏</text><text class="terminal-166846049-r14" x="841.8" y="581.2" textLength="24.4" clip-path="url(#terminal-166846049-line-23)">^p</text><text class="terminal-166846049-r2" x="866.2" y="581.2" textLength="97.6" clip-path="url(#terminal-166846049-line-23)">&#160;palette</text>
    </g>
    </g>
</svg>
